<svg width="26" height="27" xmlns="http://www.w3.org/2000/svg" xmlns:xlink="http://www.w3.org/1999/xlink" xmlns:svgjs="http://svgjs.com/svgjs" viewBox="0 0.5 26 26" fill="#010002"><svg xmlns="http://www.w3.org/2000/svg" width="26" height="27" viewBox="0 0.579 25.606 25.606"><path paint-order="stroke fill markers" fill-rule="evenodd" d="M20.805.579H4.8A4.8 4.8 0 0 0 0 5.38v16.004a4.8 4.8 0 0 0 4.8 4.8h16.005a4.8 4.8 0 0 0 4.8-4.8V5.38a4.8 4.8 0 0 0-4.8-4.801zM16.112 13.38l-2.098.002-.001 7.682h-2.88v-7.682h-1.92v-2.647l1.92-.002-.003-1.558c0-2.16.586-3.475 3.13-3.475h2.118V8.35h-1.325c-.99 0-1.039.37-1.039 1.06l-.003 1.324h2.381l-.28 2.647z"/></svg></svg>