<svg width="26" height="27" xmlns="http://www.w3.org/2000/svg" xmlns:xlink="http://www.w3.org/1999/xlink" xmlns:svgjs="http://svgjs.com/svgjs" viewBox="1507 2224 26 27"><svg width="7" height="7" xmlns="http://www.w3.org/2000/svg" xmlns:xlink="http://www.w3.org/1999/xlink" xmlns:svgjs="http://svgjs.com/svgjs" viewBox="1516 2234 7 7" x="1516" y="2234"><svg width="7" height="7" xmlns="http://www.w3.org/2000/svg" xmlns:xlink="http://www.w3.org/1999/xlink" xmlns:svgjs="http://svgjs.com/svgjs" viewBox="1516 2234 7 7" x="1516" y="2234"><svg width="7" height="7" xmlns="http://www.w3.org/2000/svg" xmlns:xlink="http://www.w3.org/1999/xlink" xmlns:svgjs="http://svgjs.com/svgjs" viewBox="0.013 0 6.975 7" fill="#010002" x="1516" y="2234"><svg xmlns="http://www.w3.org/2000/svg" xmlns:xlink="http://www.w3.org/1999/xlink" width="7" height="7" viewBox="0.998 0.557 5.609 5.629"><path paint-order="stroke fill markers" fill-rule="evenodd" d="M6.08 1.736A2.8 2.8 0 0 0 3.802.557a2.8 2.8 0 0 0-2.276 1.179 2.889 2.889 0 0 0-.529 1.646 2.81 2.81 0 0 0 2.805 2.804 2.81 2.81 0 0 0 2.804-2.804c0-.61-.203-1.179-.528-1.646z"/></svg></svg></svg></svg><svg width="14" height="9" xmlns="http://www.w3.org/2000/svg" xmlns:xlink="http://www.w3.org/1999/xlink" xmlns:svgjs="http://svgjs.com/svgjs" viewBox="1513 2235 14 9" x="1513" y="2235"><svg width="14" height="9" xmlns="http://www.w3.org/2000/svg" xmlns:xlink="http://www.w3.org/1999/xlink" xmlns:svgjs="http://svgjs.com/svgjs" viewBox="1513 2235 14 9" x="1513" y="2235"><svg width="14" height="9" xmlns="http://www.w3.org/2000/svg" xmlns:xlink="http://www.w3.org/1999/xlink" xmlns:svgjs="http://svgjs.com/svgjs" viewBox="0 0.125 14 8.75" fill="#010002" x="1513" y="2235"><svg xmlns="http://www.w3.org/2000/svg" xmlns:xlink="http://www.w3.org/1999/xlink" width="14" height="9" viewBox="0.3 0.756 13.006 8.129"><path paint-order="stroke fill markers" fill-rule="evenodd" d="M10.847.756c.203.407.325 1.057.325 1.626 0 2.398-1.95 4.37-4.37 4.37a4.363 4.363 0 0 1-4.369-4.37c0-.59.123-1.22.326-1.626H.299V7.28c0 .853.753 1.605 1.606 1.605H11.7c.854 0 1.606-.752 1.606-1.605V.756h-2.459z"/></svg></svg></svg></svg><svg width="3" height="3" xmlns="http://www.w3.org/2000/svg" xmlns:xlink="http://www.w3.org/1999/xlink" xmlns:svgjs="http://svgjs.com/svgjs" viewBox="1523 2231 3 3" x="1523" y="2231"><svg width="3" height="3" xmlns="http://www.w3.org/2000/svg" xmlns:xlink="http://www.w3.org/1999/xlink" xmlns:svgjs="http://svgjs.com/svgjs" viewBox="1523 2231 3 3" x="1523" y="2231"><svg width="3" height="3" xmlns="http://www.w3.org/2000/svg" xmlns:xlink="http://www.w3.org/1999/xlink" xmlns:svgjs="http://svgjs.com/svgjs" viewBox="0.022 0 2.955 3" fill="#010002" x="1523" y="2231"><svg xmlns="http://www.w3.org/2000/svg" xmlns:xlink="http://www.w3.org/1999/xlink" width="3" height="3" viewBox="0.217 0.224 2.683 2.723"><path paint-order="stroke fill markers" fill-rule="evenodd" d="M2.574.245H.217v2.703H2.9V.59.224l-.326.02z"/></svg></svg></svg></svg><svg width="26" height="27" xmlns="http://www.w3.org/2000/svg" xmlns:xlink="http://www.w3.org/1999/xlink" xmlns:svgjs="http://svgjs.com/svgjs" viewBox="1507 2224 26 27" x="1507" y="2224"><svg width="26" height="27" xmlns="http://www.w3.org/2000/svg" xmlns:xlink="http://www.w3.org/1999/xlink" xmlns:svgjs="http://svgjs.com/svgjs" viewBox="1507 2224 26 27" x="1507" y="2224"><svg width="26" height="27" xmlns="http://www.w3.org/2000/svg" xmlns:xlink="http://www.w3.org/1999/xlink" xmlns:svgjs="http://svgjs.com/svgjs" viewBox="0 0.51 26 25.98" fill="#010002" x="1507" y="2224"><svg xmlns="http://www.w3.org/2000/svg" width="26" height="27" viewBox="0 0.579 25.626 25.606"><path paint-order="stroke fill markers" fill-rule="evenodd" d="M19.184.579H6.422C2.886.579 0 3.465 0 7.001v12.783c0 3.515 2.886 6.401 6.422 6.401h12.782c3.536 0 6.422-2.886 6.422-6.422V7.001C25.606 3.465 22.72.579 19.184.579zm1.544 11.157v6.544c0 1.707-1.32 3.028-3.028 3.028H7.905c-1.707 0-3.028-1.321-3.028-3.028v-6.544-3.252c0-1.707 1.321-3.028 3.028-3.028H17.7c1.708 0 3.028 1.321 3.028 3.028v3.252z"/></svg></svg></svg></svg></svg>