<svg width="26" height="27" xmlns="http://www.w3.org/2000/svg" xmlns:xlink="http://www.w3.org/1999/xlink" xmlns:svgjs="http://svgjs.com/svgjs" viewBox="0 0.5 26 26" fill="#010002"><svg xmlns="http://www.w3.org/2000/svg" width="26" height="27" viewBox="0 0.579 25.606 25.606"><path paint-order="stroke fill markers" fill-rule="evenodd" d="M20.805.579H4.8A4.8 4.8 0 0 0 0 5.38v16.004a4.8 4.8 0 0 0 4.801 4.8h16.004a4.8 4.8 0 0 0 4.8-4.8V5.38a4.8 4.8 0 0 0-4.8-4.801zm-1.633 9.929l.01.408c0 4.167-3.17 8.968-8.969 8.968a8.922 8.922 0 0 1-4.831-1.416 6.325 6.325 0 0 0 4.667-1.304 3.157 3.157 0 0 1-2.945-2.19c.193.035.389.055.594.055.288 0 .566-.037.83-.11A3.155 3.155 0 0 1 6 11.83v-.04c.425.237.91.378 1.427.396a3.15 3.15 0 0 1-.976-4.207 8.946 8.946 0 0 0 6.497 3.293 3.152 3.152 0 0 1 5.373-2.874 6.378 6.378 0 0 0 2.002-.765 3.16 3.16 0 0 1-1.386 1.744 6.312 6.312 0 0 0 1.81-.496 6.37 6.37 0 0 1-1.575 1.628z"/></svg></svg>