<svg width="27" height="27" xmlns="http://www.w3.org/2000/svg" xmlns:xlink="http://www.w3.org/1999/xlink" xmlns:svgjs="http://svgjs.com/svgjs" viewBox="1539 2224 27 27"><svg width="27" height="27" xmlns="http://www.w3.org/2000/svg" xmlns:xlink="http://www.w3.org/1999/xlink" xmlns:svgjs="http://svgjs.com/svgjs" viewBox="1539 2224 27 27" x="1539" y="2224"><svg width="27" height="27" xmlns="http://www.w3.org/2000/svg" xmlns:xlink="http://www.w3.org/1999/xlink" xmlns:svgjs="http://svgjs.com/svgjs" viewBox="1539 2224 27 27" x="1539" y="2224"><svg width="27" height="27" xmlns="http://www.w3.org/2000/svg" xmlns:xlink="http://www.w3.org/1999/xlink" xmlns:svgjs="http://svgjs.com/svgjs" viewBox="1539 2224 27 27" x="1539" y="2224"><svg width="27" height="27" xmlns="http://www.w3.org/2000/svg" xmlns:xlink="http://www.w3.org/1999/xlink" xmlns:svgjs="http://svgjs.com/svgjs" fill="#010002" x="1539" y="2224"><svg xmlns="http://www.w3.org/2000/svg" xmlns:xlink="http://www.w3.org/1999/xlink" width="27" height="27" viewBox="1 0.579 25.606 25.606"><path paint-order="stroke fill markers" fill-rule="evenodd" d="M21.805.579H5.8A4.8 4.8 0 0 0 1 5.38v16.004A4.8 4.8 0 0 0 5.8 26.185h16.004a4.8 4.8 0 0 0 4.8-4.801V5.38a4.8 4.8 0 0 0-4.8-4.801zm-.136 15.67c-.087 1.065-.896 2.425-2.028 2.622-3.625.282-7.92.247-11.675 0-1.171-.147-1.941-1.559-2.027-2.623-.183-2.237-.183-3.511 0-5.748.086-1.065.875-2.468 2.027-2.596 3.712-.312 8.031-.245 11.675 0 1.303.048 1.941 1.39 2.028 2.456.179 2.238.179 3.651 0 5.888z"/></svg></svg><svg width="6" height="7" xmlns="http://www.w3.org/2000/svg" xmlns:xlink="http://www.w3.org/1999/xlink" xmlns:svgjs="http://svgjs.com/svgjs" viewBox="0.375 0 5.25 7" fill="#010002" x="1551" y="2234"><svg xmlns="http://www.w3.org/2000/svg" width="6" height="7" viewBox="0.203 0.181 4.801 6.402"><path paint-order="stroke fill markers" fill-rule="evenodd" d="M.203 6.583l4.8-3.201-4.8-3.2v6.4z"/></svg></svg></svg></svg></svg></svg>